<?xml version="1.0" encoding="UTF-8"?>
<svg id="Calque_1" data-name="Calque 1" xmlns="http://www.w3.org/2000/svg" viewBox="0 0 250.15 205.48">
  <defs>
    <style>
      .cls-1 {
        fill: none;
      }

      .cls-2 {
        fill: #fff;
      }

      .cls-2, .cls-3 {
        opacity: .3;
      }

      .cls-3, .cls-4 {
        fill: #1db4d8;
      }

      .cls-5 {
        opacity: .85;
      }
    </style>
  </defs>
  <g>
    <rect class="cls-1" x="164.3" y="4.87" width="56.41" height="110.34" transform="translate(8.41 142.32) rotate(-41.4)"/>
    <g class="cls-5">
      <g>
        <path class="cls-4" d="M246.72,79.78c0,.87.99,2.48-.16,3.32.11,2.66-2.11,3.75-3.32,5.59-.78-.69-.95.58-1.65.86-.35.39-.26,1.17-.78,1.46-.67-.27.44-1.25-.61-1.27-1.87-.07-1.75,2.4-3.11,3-.16-1.15,1.5-2.1.56-3.16-1.1.02-2.52.07-3.24.62.54.22,1.24.63,1.25,1.22-.16.4-.7.28-.92.03-.75-.46-.93-1.15-1.36-1.64-1.17-.35-2.29.13-3.29.75.25.38-.19.76-.51.88-1.19.79-2.47-.66-3.67.32-.9.54-.96,1.54-1.95,1.98-.36-.11-.71-.32-.78-.69.13-1.32,1.86-1.21,1.5-2.78-.25-.38-.72-.14-1.09-.07-.29,1.03-1.4,1.24-2,2.02.12-.45-.35-.3-.52-.4.93-1.68,3.57-2.38,3.57-4.43-.31-.16-.86-.1-.78-.6.2-.26.54-.65.53-1.15-1.21-1.77-3.69-.87-5.31-2.02,1.8.39,4-.52,5.43-.75-1.38.19-2.67-1.08-3.38-1.49,1.97-.1,2.96.23,4.71.66,1.31-1.24,2.19-2.97,2.8-4.62-.22-.93-2.02-1.32-1.35-2.51,1.01-.03.86,1.56,1.89,1.95.74-.13,1.46.69,2.22.28-.08-.19-.37-.62.04-.64.64-.05,1.45.96,1.73.02.06-.31.09-.77-.08-.96.27.02.72.14,1.09.16.46-1.43-1.42-.73-1.67-1.7,3.1.88,6.36-.29,9.32.63,1.93,1.31,4.4,2.56,4.88,5.15Z"/>
        <polygon class="cls-2" points="244.77 82.35 245 82.32 245 82.41 244.77 82.35"/>
        <path class="cls-4" d="M219.62,58.99c-.55.83-1.35,1.19-2.29.81-.84-.46-1.33-1.41-1.33-2.18.1-.86,1.08-.53,1.52-1,1.34-.24,2.29,1.33,2.09,2.37Z"/>
        <polygon class="cls-2" points="241.86 83.72 242.23 83.56 242 83.59 241.86 83.72"/>
        <polygon class="cls-2" points="243.18 85.22 243.33 84.91 243.32 85.09 243.18 85.22"/>
        <polygon class="cls-2" points="241.6 85.67 241.77 85.77 241.67 85.94 241.6 85.67"/>
        <polygon class="cls-2" points="241.24 86.33 241.39 86.11 241.38 86.2 241.24 86.33"/>
        <polygon class="cls-2" points="241.37 87.75 241.67 87.4 241.57 87.58 241.37 87.75"/>
        <polygon class="cls-2" points="239.8 85.87 239.87 85.56 239.82 85.6 239.8 85.87"/>
        <path class="cls-4" d="M221.5,65.41c1.05.8,1.69,2.11,2.4,3.21-.17.49-.57.33-.88.17-.51-1.36-2.1-2.28-2.28-3.66.19-.17,1.02-.3.76.28Z"/>
        <polygon class="cls-2" points="241.62 88.22 241.72 88.05 241.71 88.14 241.62 88.22"/>
        <path class="cls-2" d="M222.4,67.01c.26.2-.1.09-.11.27.31-.62-.31-.16-.46-.62h.78c-.19.08-.15.22-.2.35Z"/>
        <path class="cls-2" d="M221.99,66.26l-.33.21c-.24-.47.5-.01.25-.4-.05.04.04.14.08.19Z"/>
        <path class="cls-2" d="M223.13,67.84c-.19.08-.34.3-.52.2.19-.08.39-.34.52-.2Z"/>
        <path class="cls-2" d="M230.91,78.42c-.23.03-.22-.06-.04-.14.04.05,0,.09.04.14Z"/>
        <path class="cls-2" d="M239.09,88.57c-.13-.14-.21-.33-.15-.56.45.03.3.34.15.56Z"/>
        <rect class="cls-2" x="228.98" y="77.08" width=".32" height=".13" transform="translate(6.25 170.82) rotate(-41.4)"/>
        <path class="cls-2" d="M228.97,79.44l-.47.15.4-.52s-.11.27.07.37Z"/>
        <path class="cls-4" d="M169.12,20.42c-.16,1.18-1.38,1.56-1.97,2.25-.52-1.08-1.5-.14-2.28-.83-1.72.4-3.45.47-5.07,1.37-.19-.61,1.33-.74,1.44-1.78.22-1.31-1.13-1.67-1.87-2.22-1.03-.29-2.32-.1-2.76-1.09,2.93,1.28,4.93-2.11,7.76-1.34,1.57.42,3.88.02,4.44,2.01.71.41.3,1.02.31,1.62Z"/>
        <path class="cls-2" d="M224.84,83.42c-.11.27.06-.22.11-.27l-.11.27Z"/>
        <path class="cls-4" d="M220.66,78.69c-.36-.11-.63.55-1.11.29.48.35.72-.64,1.11-.29Z"/>
        <path class="cls-2" d="M223.76,82.49c-.33.12-.35-.29-.58-.26.06-.22.59,0,.58.26Z"/>
        <path class="cls-4" d="M220.18,78.43l-.37-.02.37.02Z"/>
        <path class="cls-4" d="M175.05,29.29c.8,2.47.65,4.84.45,7.34-.47.15-.48,1.02-1.03.48-.53-.31-.4-.94-.6-1.36-.04-2.29.34-4.68-.07-6.9,0-.59-.41-1.53.61-1.74,1.24-.06.81,1.6.64,2.19Z"/>
        <path class="cls-4" d="M219.55,78.3l-.28.17.28-.17Z"/>
        <path class="cls-4" d="M218.78,78.89l.42-.11c-.13-.05-.24.12-.42.11Z"/>
        <path class="cls-4" d="M218.6,78.79l-.27-.11c.06-.22.25-.3.43-.29.27.11-.06.23-.16.4Z"/>
        <path class="cls-4" d="M190.01,55.71c-.48,1.11-2.02.92-2.54,1.89-.85.4-1.96.01-2.86-.23-.07-1.14-2.21-.46-1.52-1.92-.54-.13-1.31-.91-1.72-.2.2,1.2-.75,2.55.18,3.62-.07.32-.51.11-.82.04-.75.32-.08,1.27-.25,1.76h-.96s-.1.85-.1.85c-.41.02-1.12-.39-1.34.23-.55.74.66,1.14-.1,1.64-.4-.16-.26-.89-.71-1.09-1.01.03-1.74.76-1.83,1.53-.4-.16-.51-.58-.91-.83-.65.14-1.51.04-1.74.85-.68,0-.18-.7-.54-.9-.51.79-1.66-.43-1.92.75-.33-.57.55-.74.31-1.31-1.05-2.85-4.16-1.31-5.39-3.58,1.1-.71.94-2.54,2.33-2.91.49-1.2-.72-1.6-1.19-2.13.22-.63,1.07-1.03,1.24-1.52-1.18-.16-.85-1.74-2.07-1.86,2.17,1.1,5.34.11,7.72,1.44.56-.15,1.63.28,1.82-.66.2-1.04.12-1.91-.33-2.72-.17-.97.96-.76.74-1.69.94.29.12,1.79,1.14,2.17-.05.82-.48,1.8.01,2.65.7,1.28,2.15,1.46,3,2.42,1.26.26,2.42.7,3.66.55.33-1.67-2.32-.88-2.67-2.54-.1-.51.24-.99.74-.91.95.11,2.33,1.38,2.97-.04.3-.44.23-1.49,1.08-1.21,1.88-.2,3.28.89,4.31,2.56.48,1.03.27,2.16.25,3.3Z"/>
        <path class="cls-4" d="M174.92,40.65c-.22-.93.47-.15.66-.41-.07.31-.32.8-.66.41Z"/>
        <path class="cls-4" d="M189.34,65.58c-.29.26-.72.55-1.22.56-.59-.08-1.13-.12-1.47-.59.17-.49.57-1.11,1.17-1.21.5-.01.78-.09,1.18.16.35.3.51.67.34,1.07Z"/>
        <path class="cls-2" d="M188.65,64.98c.18.1.02.32-.16.31l.05-.04-.31-.16c.59.08.22-.53,0-.59.32.07.59.08.43.48Z"/>
        <path class="cls-4" d="M212.75,93.4c-.22,1.99-2.48,2.45-3.7,3.69-1.11-1.26-2.75.1-4.12-.49.25-.31.84-.22,1.17-.43l-.03.45c.2-.35.46-.06.67-.42v.09c.28-.16,1.12.21.75-.41.51-.11.94.38,1.37.77-.12-1.01.82-.04.38-1.03.5-.01-.17.58.43.48,1.11-.2,1.91-1.34,2.48-2.36-.32.03-.49.61-.89.36.85-.5-.75-1.14.15-1.68-.67-.27-.91-.06-1.6-.05-.23.72.78.6.56,1.22-.86-.19-.52.97-1.5.55.82.05.71-.37,1.33-.74-.69.09-.59-.77-1.01-.66l.1.6c-.24-.56-.88.17-1.43.23v-.09c-.26-.11-.24.21-.33.3l-.02-.41c-1.55-.1-1.72,1.86-3.11,1.54.27-.67,1.49-.46,1.28-1.47,1.55-1.36,3.35-2.53,5.38-1.99,1,.06,1.19,1.35,1.7,1.93Z"/>
        <rect class="cls-2" x="187.89" y="65.36" width=".32" height=".13" transform="translate(3.73 140.72) rotate(-41.4)"/>
        <path class="cls-2" d="M211.47,92.81c.22.06-.02-.41.28-.16l-.28.16Z"/>
        <path class="cls-4" d="M211.13,93.79c-.16.31-.18-.1-.5.02.42-.11.22-.53.37-.75-.07.32-.22.54.14.74Z"/>
        <path class="cls-4" d="M210.66,93.26l-.15.22.15-.22Z"/>
        <path class="cls-2" d="M209.4,92.23c-.45-.03.02.41-.32-.07.18.1.24-.21.32.07Z"/>
        <path class="cls-4" d="M210.88,94.1s-.14.13-.24.12c.05-.13.16-.31.24-.12Z"/>
        <path class="cls-4" d="M210.96,94.97c.03-.54-.46.06-.45-.12.38-.25.17-.49.62-.37.26.2-.25.3-.17.49Z"/>
        <rect class="cls-4" x="209.02" y="93.69" width=".58" height=".06" transform="translate(-9.68 161.85) rotate(-41.4)"/>
        <path class="cls-2" d="M208.42,93.26c-.04-.14.23-.03.32-.02-.09,0-.27-.11-.32.02Z"/>
        <path class="cls-2" d="M208.12,92.92c-.22-.06.01-.18.06-.22,0,.09.03.23-.06.22Z"/>
        <polygon class="cls-4" points="210.03 95.28 210.36 95.16 210.24 95.52 210.03 95.28"/>
        <polygon class="cls-4" points="217.01 103.48 217.33 103.36 217.46 103.51 217.01 103.48"/>
        <path class="cls-4" d="M208.79,93.97c-.32.02-.32-.07-.21-.33-.01.18.12.24.21.33Z"/>
        <path class="cls-4" d="M192.21,76.62c-1.07,1.12-2.75.88-4,.34-.02-1.1.73-2.1,1.37-2.84.56-.24,1.42-.05,1.9.21.64.73,1.42,1.41.73,2.28Z"/>
        <path class="cls-4" d="M204.68,92.43c-1.33,1.51-3.06.72-4.71.8-.12-.33.06-.91-.49-.95.83-.81.85-1.86.75-3.15.41-.62,1.12-1.07,1.93-.93,1.66-.26.66,1.91,2.37,1.61.92.65.75,1.83.15,2.61Z"/>
        <path class="cls-4" d="M207.82,94.82l-.16.31.16-.31Z"/>
        <path class="cls-4" d="M208.61,96.01l.12.24-.12-.24Z"/>
        <path class="cls-2" d="M203.14,90.19c-.11.27.12.24.26.2-.63.55-2.43.85-1.83,1.53l.39-.34c-.07.41.49.85.24,1.25l-.43-.48.36.02c.11-.36-.44-.3-.47-.53-.6.1-.55.83-1.16.34.11-.36.48-.34.46-.75-.52.29-.22-.06-.62-.31l.36.02s0,.09-.05.13c.49.17.72-.64,1.3-.28-.43-.39.51-.88.77-1.28-.39.43.14.65.61.49-.05.04-.14.04-.18-.01Z"/>
        <path class="cls-2" d="M201.81,89.47c-.18-.01-.26-.29-.49-.26-.25-.38.49.26.49.26Z"/>
        <polygon class="cls-4" points="205.94 94.25 206.34 94.41 206.06 94.48 205.94 94.25"/>
        <polygon class="cls-4" points="215.4 105.07 215.55 104.85 215.49 104.98 215.4 105.07"/>
        <path class="cls-3" d="M202.4,91.01c-.08-.1-.16-.28-.29-.43l.09.1.25-.4c.26.29-.27.67-.05.73Z"/>
        <path class="cls-2" d="M201.97,89.93l-.4.52.4-.52Z"/>
        <path class="cls-2" d="M202.83,91.49c.02-.36-.08-.1.25-.3l-.25.3Z"/>
        <path class="cls-2" d="M189.1,75.93c-.09-.1-.13-.05-.18-.1l.29-.26c-.05.13-.02.27-.11.36Z"/>
        <path class="cls-2" d="M203.32,91.57l-.37.07.37-.07Z"/>
        <path class="cls-2" d="M201.42,89.9c-.13-.14-.18-.1-.19.08-.08-.19.2-.26.2-.35l-.02.27Z"/>
        <polygon class="cls-2" points="203.19 92.2 203.3 91.93 203.39 92.03 203.19 92.2"/>
        <polygon class="cls-4" points="195.39 83.44 195.66 83.37 195.7 83.51 195.39 83.44"/>
        <polygon class="cls-2" points="202.76 91.9 202.85 91.81 203.07 92.05 202.76 91.9"/>
        <polygon class="cls-4" points="195.56 84.32 195.94 84.07 195.75 84.15 195.56 84.32"/>
        <path class="cls-4" d="M205.73,95.46l-.59-.08c.18.01.62-.37.59.08Z"/>
        <path class="cls-4" d="M212.43,108.63l-.31-.16c.24-.12.18.01.31.16Z"/>
        <path class="cls-4" d="M159.96,60.12c-.24.9-1.31,1.24-2.01,1.52-1.35-.27-2.99-.37-3.31-1.9-.1-.51-.07-1.06.1-1.64.71-.37,1.29-1.65,2.46-1.4,1.59.15,3.51,1.54,2.76,3.41Z"/>
        <path class="cls-4" d="M182.03,86.03c-.43.98-1.51.82-2.16.96-.81-.14-1.79-.57-1.96-1.45-.29-.43-.08-.87.13-1.32.45-.57,1.35-1.1,2.2-.91,1.37,0,2.5,1.57,1.79,2.71Z"/>
      </g>
    </g>
  </g>
  <g>
    <rect class="cls-1" x="124.95" y="-15.31" width="51.32" height="100.37" transform="translate(111.74 184.51) rotate(-88.48)"/>
    <g class="cls-5">
      <g>
        <path class="cls-4" d="M197.34,11c.57.54,2.26.88,2.11,2.17,1.84,1.57,1.19,3.73,1.67,5.67-.94.09-.2.99-.45,1.63.05.47.62.9.49,1.42-.59.28-.56-1.07-1.22-.38-1.2,1.2.52,2.65.07,3.93-.86-.61-.47-2.3-1.76-2.33-.66.75-1.51,1.72-1.59,2.54.48-.22,1.18-.44,1.59-.08.17.36-.25.64-.54.63-.77.21-1.35-.09-1.93-.11-.95.56-1.33,1.61-1.54,2.66.41.07.39.6.27.89-.21,1.28-1.97,1.24-2.06,2.64-.2.93.43,1.6.11,2.52-.3.17-.65.28-.94.09-.8-.9.35-1.98-.92-2.72-.41-.07-.54.4-.72.68.51.83-.05,1.7.11,2.58-.23-.36-.41.05-.59.1-.54-1.66.63-3.85-.74-5.12-.3.11-.6.51-.88.15-.05-.29-.1-.77-.44-1.07-1.93-.29-2.87,1.92-4.64,2.28,1.37-.96,2.13-2.99,2.86-4.09-.73,1.04-2.37,1.11-3.08,1.33,1.15-1.38,1.98-1.83,3.36-2.73-.02-1.64-.62-3.3-1.34-4.73-.75-.43-2.13.53-2.51-.65.61-.69,1.57.39,2.46-.05.37-.58,1.36-.55,1.56-1.31-.17-.06-.64-.13-.4-.42.36-.46,1.53-.37,1.09-1.14-.17-.24-.46-.54-.69-.54.18-.17.54-.4.78-.63-.67-1.19-1.36.49-2.17.06,2.5-1.52,3.75-4.42,6.2-5.82,2.06-.47,4.43-1.35,6.45-.06Z"/>
        <polygon class="cls-2" points="197.85 13.88 197.97 13.71 198.03 13.77 197.85 13.88"/>
        <path class="cls-4" d="M166.71,16.17c.21.89-.04,1.64-.88,2.03-.83.27-1.76.01-2.28-.47-.51-.6.32-1.05.28-1.64.67-1.04,2.31-.7,2.87.08Z"/>
        <polygon class="cls-2" points="196.95 16.68 197.08 16.33 196.96 16.5 196.95 16.68"/>
        <polygon class="cls-2" points="198.77 16.72 198.66 16.43 198.78 16.55 198.77 16.72"/>
        <polygon class="cls-2" points="198.09 18.06 198.27 18 198.32 18.18 198.09 18.06"/>
        <polygon class="cls-2" points="198.31 18.71 198.26 18.47 198.31 18.53 198.31 18.71"/>
        <polygon class="cls-2" points="199.34 19.5 199.29 19.08 199.35 19.26 199.34 19.5"/>
        <polygon class="cls-2" points="197.12 19.38 196.95 19.14 196.95 19.2 197.12 19.38"/>
        <path class="cls-4" d="M172.15,18.89c1.18-.2,2.46.18,3.63.39.22.42-.13.58-.43.69-1.22-.5-2.81-.02-3.85-.75,0-.23.43-.87.65-.33Z"/>
        <polygon class="cls-2" points="199.81 19.63 199.75 19.45 199.81 19.51 199.81 19.63"/>
        <path class="cls-2" d="M173.78,19.29c.29-.05,0,.12.11.24-.22-.59-.3.11-.7-.08l.48-.51c-.06.17.05.23.11.35Z"/>
        <path class="cls-2" d="M173.02,19.09l-.07.35c-.47-.13.3-.34-.11-.41,0,.06.12.06.17.07Z"/>
        <path class="cls-2" d="M174.77,19.31c-.06.18-.01.41-.19.47.06-.17.01-.47.19-.47Z"/>
        <path class="cls-2" d="M186.64,20.68c-.12.17-.18.11-.12-.06.06,0,.06.06.12.06Z"/>
        <path class="cls-2" d="M198.47,21.53c-.18,0-.35-.07-.46-.25.3-.29.41.01.46.25Z"/>
        <rect class="cls-2" x="184.55" y="21.01" width=".29" height=".12" transform="translate(158.73 205.15) rotate(-88.48)"/>
        <path class="cls-2" d="M186.12,22.61l-.19.41-.1-.59c.06,0,.11.24.29.18Z"/>
        <path class="cls-4" d="M109.73,25.91c.68.84.18,1.88.28,2.71-1.05-.32-1.02.91-1.96,1-.8,1.39-1.83,2.59-2.22,4.22-.52-.25.33-1.34-.3-2.06-.74-.96-1.81-.28-2.64-.13-.84.51-1.51,1.49-2.44,1.17,2.67-1.16,1.65-4.59,3.91-6,1.25-.79,2.41-2.57,4.09-1.71.71-.22.87.43,1.27.8Z"/>
        <path class="cls-2" d="M186.22,27.83c.11.24-.11-.18-.11-.24l.11.24Z"/>
        <path class="cls-4" d="M180.48,27.68c-.3.17-.02.76-.49.92.53-.1.02-.88.49-.92Z"/>
        <path class="cls-2" d="M184.92,27.97c-.13.29-.41.05-.53.22-.11-.18.36-.4.53-.22Z"/>
        <path class="cls-4" d="M180,27.84l-.24.23.24-.23Z"/>
        <path class="cls-4" d="M119.31,27.46c2.14,1,3.63,2.56,5.17,4.24-.19.41.39.95-.32.99-.53.16-.87-.32-1.28-.44-1.55-1.39-2.91-3.13-4.64-4.23-.4-.36-1.27-.68-.78-1.49.73-.86,1.57.45,1.85.93Z"/>
        <path class="cls-4" d="M179.52,28.18l-.07.29.07-.29Z"/>
        <path class="cls-4" d="M179.44,29.05l.19-.35c-.12.06-.06.23-.19.35Z"/>
        <path class="cls-4" d="M179.26,29.11l-.24.11c-.11-.18-.05-.35.07-.47.24-.11.11.18.17.36Z"/>
        <path class="cls-4" d="M146.18,33.86c.44,1.01-.64,1.92-.31,2.87-.26.81-1.21,1.32-1.92,1.77-.8-.67-1.67,1.19-2.22-.17-.42.28-1.42.31-1.2,1.02.92.61,1.23,2.08,2.52,2.12.17.24-.25.4-.48.57-.25.7.8.84,1.02,1.26l-.6.63.51.6c-.24.29-.95.5-.67,1.04.15.83,1.17.27,1.03,1.08-.36.17-.75-.37-1.17-.21-.6.69-.57,1.63-.12,2.17-.36.17-.7-.02-1.12.09-.31.52-.91,1.03-.51,1.69-.42.46-.58-.31-.93-.2.21.83-1.31.84-.69,1.74-.58-.13-.15-.82-.68-1.02-2.55-1.06-3.45,1.96-5.73,1.37.21-1.17-1.11-2.2-.5-3.36-.5-1.07-1.51-.51-2.16-.53-.28-.54-.02-1.35-.25-1.77-.84.68-1.69-.51-2.53.23,2.07-.77,3.38-3.49,5.74-4.25.25-.46,1.2-.91.69-1.62-.57-.78-1.2-1.26-2.01-1.46-.75-.49.09-1.11-.66-1.54.77-.45,1.26,1.03,2.15.58.51.54.9,1.43,1.77,1.63,1.28.33,2.3-.53,3.47-.5.96-.68,1.97-1.18,2.64-2.1-.9-1.26-2.02,1-3.35.2-.4-.25-.51-.78-.15-1.06.66-.57,2.36-.7,1.81-2-.1-.47-.85-1.08-.14-1.47,1.03-1.38,2.62-1.63,4.37-1.29.99.32,1.61,1.16,2.36,1.88Z"/>
        <path class="cls-4" d="M126.8,34.58c-.75-.43.19-.41.14-.7.17.24.33.71-.14.7Z"/>
        <path class="cls-4" d="M152.34,40.42c0,.35-.08.82-.38,1.16-.42.34-.78.68-1.31.61-.22-.42-.38-1.07-.08-1.53.3-.34.43-.58.84-.68.41-.05.76.08.93.44Z"/>
        <path class="cls-2" d="M151.51,40.51c.18-.05.23.18.11.3v-.06s-.29.11-.29.11c.42-.34-.22-.48-.4-.36.24-.17.42-.34.59.02Z"/>
        <path class="cls-4" d="M185.37,42.06c1.2,1.38.09,3.17.17,4.76-1.52-.04-1.63,1.89-2.88,2.45-.05-.36.37-.7.44-1.04l.28.3c-.11-.35.25-.34.14-.7l.06.06c.07-.29.84-.62.2-.76.25-.4.83-.39,1.36-.43-.75-.55.49-.57-.45-.89.3-.34.28.48.59.02.55-.87.29-2.1-.04-3.11-.18.23.1.71-.31.81.2-.88-1.23-.21-1.03-1.14-.59.28-.6.57-1.02,1.03.34.6.88-.15,1.16.38-.66.45.33.95-.56,1.33.54-.51.19-.7.33-1.34-.37.52-.88-.08-1.06.27l.46.3c-.52-.19-.43.69-.73,1.09l-.06-.06c-.24.11,0,.29-.01.41l-.29-.24c-1.02.97.17,2.29-.9,3.03-.28-.59.62-1.28-.19-1.77.05-1.88.39-3.8,2.01-4.81.66-.63,1.64.04,2.34.06Z"/>
        <rect class="cls-2" x="151.29" y="41.13" width=".29" height=".12" transform="translate(106.24 191.47) rotate(-88.48)"/>
        <path class="cls-2" d="M184.19,42.55c.18-.11-.29-.24.07-.29l-.07.29Z"/>
        <path class="cls-4" d="M184.63,43.39c.11.3-.18.06-.3.35.19-.35-.22-.47-.27-.71.17.24.22.48.58.37Z"/>
        <path class="cls-4" d="M183.99,43.37l.05.24-.05-.24Z"/>
        <path class="cls-2" d="M182.52,43.56c-.3.29.29.24-.24.17.18-.05,0-.29.24-.17Z"/>
        <path class="cls-4" d="M184.68,43.74c0,.06,0,.18-.07.23-.06-.12-.11-.3.07-.23Z"/>
        <path class="cls-4" d="M185.31,44.23c-.34-.36-.24.34-.36.22.07-.41-.22-.42.13-.64.29-.05.05.35.22.42Z"/>
        <rect class="cls-4" x="183.19" y="44.53" width=".53" height=".06" transform="translate(134.04 226.77) rotate(-88.48)"/>
        <path class="cls-2" d="M182.6,44.86c-.12-.06.12-.17.18-.23-.06.06-.24.11-.18.23Z"/>
        <path class="cls-2" d="M182.19,44.85c-.18.11-.11-.12-.11-.18.06.06.17.12.11.18Z"/>
        <polygon class="cls-4" points="184.94 45.04 185.07 44.75 185.23 45.04 184.94 45.04"/>
        <polygon class="cls-4" points="194.72 45.47 194.85 45.18 195.02 45.19 194.72 45.47"/>
        <path class="cls-4" d="M183.3,45.05c-.18.23-.24.17-.35-.07.11.12.23.07.35.07Z"/>
        <path class="cls-4" d="M161.47,45.35c.08,1.41-1.12,2.38-2.25,2.87-.74-.67-.95-1.78-1.04-2.67.19-.52.85-.97,1.32-1.14.88.02,1.82-.07,1.97.93Z"/>
        <path class="cls-4" d="M179.73,46.84c.19,1.82-1.42,2.48-2.38,3.63-.29-.12-.57-.6-.93-.26-.03-1.05-.72-1.72-1.64-2.45-.16-.65-.02-1.41.58-1.86.85-1.27,1.68.75,2.54-.58,1-.21,1.68.63,1.84,1.52Z"/>
        <path class="cls-4" d="M183.27,46.22l.11.3-.11-.3Z"/>
        <path class="cls-4" d="M184.55,46.43l.23.07-.23-.07Z"/>
        <path class="cls-2" d="M177.28,46.47c.11.24.23.06.29-.05-.02.76-.94,2.14-.12,2.17v-.47c.24.3.89.2.99.61l-.59-.02.24-.23c-.17-.3-.47.11-.64-.02-.3.46.21.88-.49.98-.17-.3.07-.53-.21-.77-.13.52-.18.11-.59.22l.24-.23c0,.06.06.06.06.12.42-.22.02-.88.61-1.04-.53.05-.27-.89-.38-1.3.04.53.52.31.71-.1,0,.06-.06.12-.12.11Z"/>
        <path class="cls-2" d="M175.98,46.91c-.12.11-.35,0-.47.16-.41-.07.47-.16.47-.16Z"/>
        <polygon class="cls-4" points="181.72 47.12 182.07 46.96 181.95 47.19 181.72 47.12"/>
        <polygon class="cls-4" points="194.79 47.53 194.73 47.29 194.79 47.41 194.79 47.53"/>
        <path class="cls-3" d="M177.37,47.47c-.12,0-.29-.07-.47-.07h.12s-.11-.41-.11-.41c.35,0,.28.6.46.48Z"/>
        <path class="cls-2" d="M176.38,47.1l.1.59-.1-.59Z"/>
        <path class="cls-2" d="M177.95,47.49c-.23-.24-.12,0-.05-.35l.05.35Z"/>
        <path class="cls-2" d="M159.08,46.99c-.12,0-.12.06-.18.05v-.35c.06.12.18.18.18.3Z"/>
        <path class="cls-2" d="M178.31,47.21l-.18.29.18-.29Z"/>
        <path class="cls-2" d="M176.02,47.44c-.18,0-.18.05-.06.17-.17-.06-.05-.29-.11-.35l.17.18Z"/>
        <polygon class="cls-2" points="178.65 47.68 178.54 47.45 178.66 47.45 178.65 47.68"/>
        <polygon class="cls-4" points="167.98 47.46 168.11 47.23 168.22 47.29 167.98 47.46"/>
        <polygon class="cls-2" points="178.18 47.79 178.19 47.67 178.48 47.68 178.18 47.79"/>
        <polygon class="cls-4" points="168.68 47.89 168.75 47.48 168.68 47.65 168.68 47.89"/>
        <path class="cls-4" d="M182.4,48.02l-.42.34c.12-.11.13-.64.42-.34Z"/>
        <path class="cls-4" d="M195.32,51.71l-.3.11c.07-.23.12-.11.3-.11Z"/>
        <path class="cls-4" d="M130.5,56.61c.45.72.02,1.64-.24,2.28-1.02.74-2.1,1.76-3.31,1.03-.4-.25-.75-.61-1.03-1.08.19-.7-.3-1.88.59-2.51,1.08-.97,3.2-1.38,3.98.28Z"/>
        <path class="cls-4" d="M161.43,57.96c.39.89-.39,1.52-.7,2.04-.6.45-1.49.84-2.18.41-.47-.07-.63-.48-.8-.9-.1-.65.1-1.58.76-2.03.85-.92,2.6-.69,2.92.49Z"/>
      </g>
    </g>
  </g>
  <g>
    <rect class="cls-1" x="5.89" y="136.75" width="103.33" height="52.83" transform="translate(-51.73 29.03) rotate(-19.74)"/>
    <g class="cls-5">
      <g>
        <path class="cls-4" d="M21.63,203.53c-.75-.31-2.5,0-2.84-1.29-2.35-.82-2.53-3.13-3.72-4.82.87-.44-.18-1.03-.17-1.73-.22-.44-.93-.63-1-1.18.47-.49.94.82,1.32-.09.71-1.6-1.49-2.35-1.54-3.74,1.06.26,1.31,2.03,2.56,1.58.36-.96.81-2.21.58-3.03-.37.39-.97.86-1.49.66-.29-.28,0-.71.29-.81.66-.49,1.33-.41,1.89-.62.71-.89.68-2.04.48-3.12-.42.09-.6-.43-.59-.75-.28-1.31,1.43-1.92.99-3.31-.16-.97-1.01-1.37-1.05-2.38.22-.27.52-.51.87-.44,1.1.57.41,2.03,1.9,2.27.42-.09.37-.58.44-.93-.8-.61-.59-1.65-1.07-2.44.35.26.38-.2.53-.32,1.14,1.39.83,3.93,2.63,4.64.24-.22.38-.71.79-.48.16.26.38.7.82.86,1.96-.44,2.04-2.91,3.6-3.92-.96,1.43-.93,3.67-1.22,4.99.31-1.27,1.86-1.95,2.46-2.42-.59,1.75-1.22,2.49-2.2,3.87.63,1.57,1.82,2.94,3.05,4.03.88.13,1.84-1.3,2.65-.31-.32.88-1.66.21-2.35.97-.14.69-1.1,1.04-1.01,1.84.19,0,.67-.11.54.26-.18.58-1.33.93-.61,1.5.25.17.64.35.86.27-.11.23-.37.58-.51.89,1.09.89,1.12-.98,2.06-.87-1.83,2.39-1.95,5.64-3.77,7.89-1.8,1.22-3.75,2.95-6.17,2.47Z"/>
        <polygon class="cls-2" points="20.07 200.95 20.01 201.16 19.94 201.12 20.07 200.95"/>
        <path class="cls-4" d="M49.09,187.13c-.53-.77-.57-1.59.08-2.27.69-.57,1.68-.67,2.36-.4.72.38.08,1.13.34,1.67-.26,1.25-1.95,1.53-2.78,1Z"/>
        <polygon class="cls-2" points="19.88 197.94 19.89 198.32 19.94 198.11 19.88 197.94"/>
        <polygon class="cls-2" points="18.12 198.57 18.34 198.81 18.18 198.74 18.12 198.57"/>
        <polygon class="cls-2" points="18.28 197.04 18.13 197.16 18.01 197.01 18.28 197.04"/>
        <polygon class="cls-2" points="17.83 196.49 17.96 196.7 17.89 196.66 17.83 196.49"/>
        <polygon class="cls-2" points="16.54 196.12 16.74 196.5 16.62 196.35 16.54 196.12"/>
        <polygon class="cls-2" points="18.72 195.4 18.97 195.57 18.95 195.51 18.72 195.4"/>
        <path class="cls-4" d="M42.86,186.55c-1.05.64-2.43.74-3.62.98-.37-.31-.09-.61.15-.82,1.36.03,2.71-1.04,3.97-.72.08.23-.09.99-.5.56Z"/>
        <polygon class="cls-2" points="16.04 196.17 16.16 196.32 16.08 196.29 16.04 196.17"/>
        <path class="cls-2" d="M41.14,186.78c-.26.16-.04-.12-.2-.19.43.48.24-.22.7-.19l-.27.67c0-.19-.14-.21-.24-.3Z"/>
        <path class="cls-2" d="M41.94,186.68l-.07-.36c.5-.05-.16.44.26.36-.02-.06-.13-.02-.19,0Z"/>
        <path class="cls-2" d="M40.18,187.13c0-.19-.14-.4,0-.52,0,.19.16.46,0,.52Z"/>
        <path class="cls-2" d="M28.28,190.24c.05-.21.13-.17.13.02-.06.02-.08-.04-.13-.02Z"/>
        <path class="cls-2" d="M16.62,193.85c.17-.06.36-.07.54.06-.18.39-.4.14-.54-.06Z"/>
        <rect class="cls-2" x="29.94" y="188.99" width=".12" height=".3" transform="translate(-62.12 21.25) rotate(-19.74)"/>
        <path class="cls-2" d="M28.06,188.2l.03-.46.32.53c-.06.02-.2-.19-.35-.07Z"/>
        <path class="cls-4" d="M100.12,156.51c-.97-.55-.88-1.74-1.28-2.49,1.12-.08.64-1.25,1.51-1.69.25-1.63.79-3.17.56-4.88.59.05.19,1.41,1.05,1.87,1.06.64,1.84-.4,2.58-.86.61-.8.89-1.99,1.9-2.03-2.13,2.11.13,5.02-1.51,7.21-.91,1.22-1.36,3.37-3.29,3.17-.6.47-.99-.09-1.52-.29Z"/>
        <path class="cls-2" d="M26.02,183.23c-.2-.19.17.13.19.19l-.19-.19Z"/>
        <path class="cls-4" d="M31.59,181.23c.22-.27-.26-.74.13-1.07-.47.3.31.85-.13,1.07Z"/>
        <path class="cls-2" d="M27.21,182.61c.01-.33.38-.2.43-.41.17.13-.2.52-.43.41Z"/>
        <path class="cls-4" d="M31.98,180.9l.15-.31-.15.31Z"/>
        <path class="cls-4" d="M90.35,158.61c-2.43-.16-4.44-1.1-6.54-2.14.03-.46-.72-.77-.06-1.07.45-.36.95-.02,1.39-.05,2,.76,3.96,1.91,6.03,2.32.52.2,1.47.18,1.31,1.14-.38,1.1-1.68.15-2.12-.2Z"/>
        <path class="cls-4" d="M32.31,180.39l-.05-.31.05.31Z"/>
        <path class="cls-4" d="M32.06,179.52l-.05.4c.09-.1-.03-.25.05-.4Z"/>
        <path class="cls-4" d="M32.21,179.4l.19-.2c.17.13.18.32.11.48-.19.19-.18-.13-.29-.28Z"/>
        <path class="cls-4" d="M62.18,162.49c-.8-.8-.1-2.08-.77-2.87-.06-.88.67-1.71,1.19-2.41,1.02.34,1.16-1.76,2.2-.66.3-.43,1.24-.83.77-1.43-1.11-.24-1.96-1.54-3.21-1.09-.25-.17.08-.48.25-.73-.02-.76-1.08-.51-1.45-.83l.34-.83-.72-.38c.12-.37.73-.84.26-1.25-.46-.73-1.22.18-1.39-.66.28-.29.86.08,1.2-.24.32-.88-.06-1.77-.7-2.12.28-.29.68-.24,1.04-.5.1-.61.49-1.33-.14-1.81.23-.6.67.08.97-.16-.51-.71.94-1.3.01-1.93.61-.09.46.73,1.03.72,2.85.07,2.58-3.17,4.98-3.45.24,1.2,1.89,1.7,1.73,3.03.88.84,1.64-.08,2.27-.3.47.41.53,1.29.9,1.6.55-.97,1.81-.14,2.34-1.16-1.7,1.51-1.94,4.61-3.92,6.22-.06.54-.81,1.32-.05,1.82.83.53,1.62.77,2.48.65.9.19.33,1.1,1.21,1.23-.58.72-1.6-.52-2.29.24-.69-.33-1.4-1.04-2.31-.9-1.35.17-2.01,1.37-3.15,1.77-.67,1.01-1.45,1.87-1.75,3,1.34.87,1.57-1.71,3.14-1.45.48.09.78.55.54.96-.42.79-2.01,1.55-.99,2.6.28.42,1.22.72.68,1.36-.48,1.71-1.91,2.55-3.72,2.87-1.07.06-1.98-.51-2.96-.92Z"/>
        <path class="cls-4" d="M80.5,154.57c.88.13-.03.46.13.72-.25-.17-.58-.56-.13-.72Z"/>
        <path class="cls-4" d="M53.83,158.5c-.12-.34-.23-.81-.07-1.26.28-.48.49-.95,1.03-1.07.37.32.76.88.64,1.44-.16.44-.19.71-.55.97-.38.2-.76.21-1.05-.07Z"/>
        <path class="cls-2" d="M54.58,158.1c-.15.12-.29-.09-.22-.24l.02.06.24-.22c-.28.48.39.37.52.2-.17.25-.28.48-.57.2Z"/>
        <path class="cls-4" d="M21.52,169.26c-1.66-.88-1.27-3.01-1.94-4.5,1.48-.53.86-2.42,1.85-3.42.18.32-.1.81-.03,1.17l-.39-.18c.24.3-.11.42.13.72l-.08-.04c.04.31-.57.91.09.8-.08.48-.65.68-1.14.92.92.25-.25.73.76.69-.16.44-.45-.35-.57.2-.21,1.04.51,2.13,1.19,2.97.09-.29-.36-.64,0-.9.14.91,1.25-.26,1.41.71.47-.49.36-.77.6-1.37-.55-.45-.79.48-1.26.07.46-.68-.67-.79.04-1.49-.33.69.07.74.19,1.41.16-.63.87-.25.92-.65l-.56-.12c.57-.01.15-.83.3-1.32l.08.04c.19-.2-.1-.28-.14-.4l.37.13c.62-1.31-1.02-2.13-.27-3.24.49.47-.12,1.45.84,1.62.65,1.82,1.04,3.79-.13,5.37-.4.85-1.59.57-2.27.82Z"/>
        <rect class="cls-2" x="54.34" y="157.28" width=".12" height=".3" transform="translate(-49.98 27.63) rotate(-19.74)"/>
        <path class="cls-2" d="M22.47,168.34c-.13.17.36.12.05.3l-.05-.3Z"/>
        <path class="cls-4" d="M21.73,167.71c-.22-.24.15-.12.16-.44-.05.4.39.37.53.58-.25-.17-.39-.37-.69-.14Z"/>
        <path class="cls-4" d="M22.36,167.49l-.14-.21.14.21Z"/>
        <path class="cls-2" d="M23.7,166.75c.18-.39-.37-.13.17-.25-.15.12.1.28-.17.25Z"/>
        <path class="cls-4" d="M21.55,167.39c-.02-.06-.06-.17-.02-.25.1.09.22.24.02.25Z"/>
        <path class="cls-4" d="M20.77,167.16c.46.22.11-.42.26-.35.09.42.37.32.11.67-.26.16-.18-.32-.37-.32Z"/>
        <rect class="cls-4" x="22.39" y="165.88" width=".06" height=".54" transform="translate(-54.8 17.34) rotate(-19.74)"/>
        <path class="cls-2" d="M23.13,165.54c.13.02-.05.21-.09.29.04-.08.19-.2.09-.29Z"/>
        <path class="cls-2" d="M23.53,165.4c.13-.17.15.07.17.13-.08-.04-.21-.05-.17-.13Z"/>
        <polygon class="cls-4" points="20.82 166.24 20.81 166.57 20.54 166.34 20.82 166.24"/>
        <polygon class="cls-4" points="11.27 169.48 11.26 169.8 11.09 169.86 11.27 169.48"/>
        <path class="cls-4" d="M22.39,165.61c.09-.29.17-.25.36-.06-.15-.07-.25.02-.36.06Z"/>
        <path class="cls-4" d="M43.22,157.18c-.6-1.32.19-2.7,1.08-3.6.96.36,1.58,1.36,2,2.17.01.57-.45,1.25-.84,1.58-.85.31-1.72.75-2.24-.16Z"/>
        <path class="cls-4" d="M25.15,162.57c-.86-1.68.43-2.91.93-4.37.33.01.77.36.99-.1.42,1,1.33,1.38,2.48,1.74.4.57.55,1.34.14,2-.35,1.54-1.89-.09-2.22,1.5-.88.57-1.85.02-2.33-.77Z"/>
        <path class="cls-4" d="M21.98,164.48l-.21-.24.21.24Z"/>
        <path class="cls-4" d="M20.67,164.76l-.25.02.25-.02Z"/>
        <path class="cls-2" d="M27.63,162c-.19-.19-.25.02-.26.16-.26-.74.1-2.41-.7-2.12l.16.46c-.33-.2-.91.14-1.17-.22l.57-.2-.15.31c.27.22.41-.28.62-.22.12-.56-.53-.77.11-1.13.27.22.13.53.49.66-.07-.55.13-.17.49-.43l-.15.31c-.02-.06-.08-.03-.1-.09-.32.37.31.85-.2,1.23.49-.24.59.75.85,1.11-.24-.49-.61-.1-.64.36-.02-.06.02-.13.07-.15Z"/>
        <path class="cls-2" d="M28.72,161.1c.07-.15.34-.12.39-.33.42-.09-.39.33-.39.33Z"/>
        <polygon class="cls-4" points="23.13 163.04 22.85 163.33 22.89 163.06 23.13 163.04"/>
        <polygon class="cls-4" points="10.44 167.53 10.58 167.74 10.49 167.64 10.44 167.53"/>
        <path class="cls-3" d="M27.18,161.08c.11-.04.3-.05.47-.11l-.11.04.26.36c-.34.12-.49-.47-.62-.29Z"/>
        <path class="cls-2" d="M28.26,161.07l-.32-.53.32.53Z"/>
        <path class="cls-2" d="M26.61,161.28c.31.15.11-.04.18.32l-.18-.32Z"/>
        <path class="cls-2" d="M44.9,154.72c.11-.04.09-.1.15-.12l.12.34c-.1-.09-.23-.11-.27-.22Z"/>
        <path class="cls-2" d="M26.37,161.69l.07-.35-.07.35Z"/>
        <path class="cls-2" d="M28.48,160.61c.17-.06.15-.12,0-.19.19,0,.16.26.24.3l-.23-.11Z"/>
        <polygon class="cls-2" points="25.86 161.36 26.06 161.54 25.94 161.58 25.86 161.36"/>
        <polygon class="cls-4" points="36.18 157.59 36.15 157.86 36.02 157.84 36.18 157.59"/>
        <polygon class="cls-2" points="26.28 161.08 26.32 161.19 26.03 161.29 26.28 161.08"/>
        <polygon class="cls-4" points="35.36 157.43 35.44 157.85 35.44 157.66 35.36 157.43"/>
        <path class="cls-4" d="M22.15,162.43l.28-.48c-.07.15.11.66-.28.48Z"/>
        <path class="cls-4" d="M8.37,163.72l.24-.21c.02.25-.07.15-.24.21Z"/>
        <path class="cls-4" d="M68.73,134.81c-.7-.52-.63-1.57-.62-2.28.7-1.08,1.36-2.47,2.79-2.22.48.08.94.3,1.39.66.07.74.99,1.7.37,2.63-.68,1.33-2.56,2.52-3.92,1.22Z"/>
        <path class="cls-4" d="M38.55,145.07c-.7-.71-.19-1.6-.09-2.22.41-.66,1.11-1.36,1.94-1.21.47-.11.79.23,1.1.57.34.58.49,1.55.03,2.23-.47,1.2-2.23,1.64-2.98.62Z"/>
      </g>
    </g>
  </g>
</svg>