<?xml version="1.0" encoding="UTF-8"?>
<svg id="b" data-name="Calque 2" xmlns="http://www.w3.org/2000/svg" width="699.46" height="209" viewBox="0 0 699.46 209">
  <defs>
    <style>
      .d {
        opacity: .1;
      }

      .d, .e, .f {
        fill: #ffffff;
      }

      .e, .g, .h, .i, .j, .k {
        opacity: .2;
      }

      .f, .l, .m, .n, .o {
        opacity: .3;
      }

      .p {
        fill: #c4f6aa;
      }

      .q, .l {
        fill: #fdfda4;
      }

      .q, .r {
        opacity: .5;
      }

      .s {
        fill: #ffffff;
      }

      .g {
        fill: #e6e61c;
      }

      .t {
        fill: #ffffff;
      }

      .r, .h, .u {
        fill: #000000;
      }

      .m {
        fill: #ffffff;
      }

      .n {
        fill: #fcfc43;
      }

      .v {
        fill: #ffffff;
      }

      .w {
        fill: #ffffff;
      }

      .i, .x, .o {
        fill: #629832;
      }

      .x {
        opacity: .6;
      }

      .y {
        fill: #ffffff;
      }

      .j {
        fill: #ffffff;
      }

      .k {
        fill: #ffffff;
      }
    </style>
  </defs>
  <g id="c" data-name="Calque 1">
    <path class="m" d="M665.5,75.96h13.5v55.08h-13.5c0,3.98,0,11.88-3.97,7.91v-7.91h-15.9c-3.96,0-111.25,75.57-131.11,75.57h-23.84c-3.96,0-6.35-3.98-7.94-3.98s-3.98,3.98-7.95,3.98h-19.86c-3.98,0-6.35-3.98-7.95-3.98h-107.27c-1.58,0-3.98,3.98-7.94,3.98h-19.88c-3.96,0-6.35-3.98-7.94-3.98s-3.98,3.98-7.95,3.98h-19.86c-3.98,0-6.35-3.98-7.95-3.98s-3.96,3.98-7.94,3.98h-19.86c-3.98,0-6.37-3.98-7.95-3.98s-3.97,3.98-7.95,3.98h-19.87c-3.97,0-6.35-3.98-7.93-3.98s-3.98,3.98-7.95,3.98h-19.86c-3.97,0-6.37-3.98-7.95-3.98s-3.98,3.98-7.94,3.98h-19.88c-3.96,0-6.35-3.98-7.94-3.98s-3.97,3.98-7.95,3.98h-19.86c-3.98,0-6.35-3.98-7.95-3.98s-3.96,3.98-7.94,3.98h-31.79c-23.84,0-39.78-16.16-43.7-35.76C-1.99,131.11-1.99,75.48,5.96,35.75,10.02,15.5,25.83,0,49.66,0h31.79c3.98,0,6.36,3.97,7.94,3.97s3.97-3.97,7.95-3.97h19.86c3.98,0,6.35,3.97,7.95,3.97s3.97-3.97,7.94-3.97h19.88c3.96,0,6.35,3.97,7.94,3.97s3.98-3.97,7.95-3.97h19.86c3.98,0,6.36,3.97,7.95,3.97s3.96-3.97,7.93-3.97h19.87c3.97,0,6.36,3.97,7.95,3.97s3.98-3.97,7.95-3.97h19.86c3.98,0,6.36,3.97,7.94,3.97s3.97-3.97,7.95-3.97h19.86c3.98,0,6.35,3.97,7.95,3.97s3.97-3.97,7.94-3.97h19.88c3.96,0,6.35,3.97,7.94,3.97h107.27c1.6,0,3.98-3.97,7.95-3.97h19.86c3.98,0,6.41,3.97,7.95,3.97s3.98-3.97,7.94-3.97h23.84c19.86,0,127.83,75.56,131.11,75.56h15.9v-7.89c3.97-3.97,3.97-.08,3.97,3.9v4.4Z"/>
    <path class="e" d="M609.87,55.67c3.98,0,3.98,96.06,0,96.06s-75.49,57.27-95.36,57.27h-23.84c-3.96,0-6.35-3.91-7.94-3.91s-3.98,3.91-7.95,3.91h-19.86c-3.98,0-6.35-3.91-7.95-3.91h-107.27c-1.58,0-3.98,3.91-7.94,3.91h-19.88c-3.96,0-6.35-3.91-7.94-3.91s-3.98,3.91-7.95,3.91h-19.86c-3.98,0-6.35-3.91-7.95-3.91s-3.96,3.91-7.94,3.91h-19.86c-3.98,0-6.37-3.91-7.95-3.91s-3.97,3.91-7.95,3.91h-19.87c-3.97,0-6.35-3.91-7.93-3.91s-3.98,3.91-7.95,3.91h-19.86c-3.97,0-6.37-3.91-7.95-3.91s-3.98,3.91-7.94,3.91h-19.88c-3.96,0-6.35-3.91-7.94-3.91s-3.97,3.91-7.95,3.91h-19.86c-3.98,0-6.35-3.91-7.95-3.91s-3.96,3.91-7.94,3.91h-31.79c-23.84,0-36.6-15.87-40.51-35.16-7.95-39.07-7.95-93.76,0-132.83C13.19,21.09,25.83,5.85,49.66,5.85h31.79c3.98,0,6.36,3.91,7.94,3.91s3.97-3.91,7.95-3.91h19.86c3.98,0,6.35,3.91,7.95,3.91s3.97-3.91,7.94-3.91h19.88c3.96,0,6.35,3.91,7.94,3.91s3.98-3.91,7.95-3.91h19.86c3.98,0,6.36,3.91,7.95,3.91s3.96-3.91,7.93-3.91h19.87c3.97,0,6.36,3.91,7.95,3.91s3.98-3.91,7.95-3.91h19.86c3.98,0,6.36,3.91,7.94,3.91s3.97-3.91,7.95-3.91h19.86c3.98,0,6.35,3.91,7.95,3.91s3.97-3.91,7.94-3.91h19.88c3.96,0,6.35,3.91,7.94,3.91h107.27c1.6,0,3.98-3.91,7.95-3.91h19.86c3.98,0,6.41,3.91,7.95,3.91s3.98-3.91,7.94-3.91h23.84c19.86,0,91.38,49.82,95.36,49.82h0Z"/>
    <path class="d" d="M17.88,27.82c-6.82-4.1-11.93,43.7-11.93,75.48s5.1,79.58,11.93,75.49c19.86-11.93,35.75-51.65,35.75-75.49,0-23.84-15.89-63.57-35.75-75.48h0Z"/>
    <path class="d" d="M52.3,101.08c-1.73-22.64-10.21-44.81-24.14-62.76-3.33-3.74-7.07-8.05-11.47-10-4.97,8.74-5.19,19.56-6.77,29.35-4.12,36.96-3.76,74.78,3.23,111.29.99,3.14,1.42,7.14,3.82,9.4,14.84-9.96,23-27.08,29.06-43.34,3.75-10.86,6.57-22.34,6.27-33.94h0Z"/>
    <path class="l" d="M610.13,151.64c-1.57,0-2.85-13.68-2.85-44.36s1.28-51.56,2.85-51.56,2.83,20.88,2.83,51.57-1.26,44.36-2.83,44.36h0Z"/>
    <path class="q" d="M610.13,151.64c-1.07,0-2-5.91-2.49-19.56l5.01-1.34c-.47,14.58-1.42,20.9-2.52,20.9h0Z"/>
    <path class="h" d="M4.18,51.69c-3.87,13.7-4.04,40.27,0,26.66,4.04-13.59,24.63-24,48.47-24h25.43c3.98,0,6.35,2.67,7.95,2.67s3.96-2.67,7.94-2.67h19.86c3.98,0,6.37,2.67,7.95,2.67s3.98-2.67,7.95-2.67h19.86c3.98,0,6.36,2.67,7.94,2.67s3.97-2.67,7.95-2.67h19.87c3.97,0,6.35,2.67,7.95,2.67s3.98-2.67,7.94-2.67h19.87c3.96,0,6.36,2.67,7.94,2.67s3.98-2.67,7.95-2.67h19.86c3.98,0,6.35,2.67,7.95,2.67s3.96-2.67,7.94-2.67h19.86c3.97,0,6.37,2.67,7.95,2.67s3.98-2.67,7.95-2.67h19.86c3.98,0,6.35,2.67,7.94,2.67h107.29c1.58,0,3.96-2.67,7.94-2.67h19.86c3.98,0,6.41,2.67,7.95,2.67s3.98-2.67,7.95-2.67h23.84c19.86,0,131.3,38.61,134.47,38.61h15.9v-14.29c-.79,0-14.31,0-15.9,0-3.17,0-114.6-50.99-134.47-50.99h-23.84c-3.98,0-6.37,2.67-7.95,2.67s-3.98-2.67-7.95-2.67h-19.86c-3.98,0-6.36,2.67-7.94,2.67h-107.29c-1.58,0-3.96-2.67-7.94-2.67h-19.86c-3.98,0-6.37,2.67-7.95,2.67s-3.98-2.67-7.95-2.67h-19.86c-3.98,0-6.36,2.67-7.94,2.67s-3.97-2.67-7.95-2.67h-19.86c-3.97,0-6.35,2.67-7.95,2.67s-3.98-2.67-7.94-2.67h-19.88c-3.96,0-6.35,2.67-7.94,2.67s-3.98-2.67-7.95-2.67h-19.86c-3.98,0-6.35,2.67-7.95,2.67s-3.96-2.67-7.94-2.67h-19.86c-3.97,0-6.37,2.67-7.95,2.67s-3.98-2.67-7.95-2.67h-19.86c-3.98,0-6.36,2.67-7.94,2.67s-3.98-2.67-7.95-2.67h-25.42c-23.85,0-44.64,10.34-48.48,24h0Z"/>
    <path class="j" d="M661.53,82.64c-2.39,0-14.31-.79-15.9-.79s-114.2-46.28-134.07-46.28h-23.84c-3.98,0-6.35,2.66-7.94,2.66s-3.98-2.66-7.95-2.66h-19.86c-3.98,0-6.35,2.66-7.95,2.66h-107.27c-1.58,0-3.97-2.66-7.95-2.66h-19.86c-3.97,0-6.35,2.66-7.94,2.66s-3.98-2.66-7.95-2.66h-19.86c-3.98,0-6.35,2.66-7.95,2.66s-3.98-2.66-7.93-2.66h-19.88c-3.96,0-6.35,2.66-7.94,2.66s-3.98-2.66-7.95-2.66h-19.86c-3.97,0-6.35,2.66-7.95,2.66s-3.96-2.66-7.94-2.66h-19.86c-3.98,0-6.37,2.66-7.95,2.66s-3.97-2.66-7.95-2.66h-19.86c-3.98,0-6.35,2.66-7.94,2.66s-3.98-2.66-7.95-2.66h-19.86c-3.98,0-6.36,2.66-7.95,2.66s-3.98-2.66-7.94-2.66h-25.44c-23.84,0-43.47,10.84-48.48,23.99-1.78,4.66-4.09,21.86-2.31,22.31.85.27,1.14-3.65,2.31-7.66,4-13.6,24.63-23.99,48.48-23.99h25.44c3.96,0,6.35,2.66,7.94,2.66s3.97-2.66,7.95-2.66h19.86c3.98,0,6.36,2.66,7.95,2.66s3.96-2.66,7.94-2.66h19.86c3.98,0,6.37,2.66,7.95,2.66s3.97-2.66,7.95-2.66h19.86c3.98,0,6.36,2.66,7.94,2.66s3.98-2.66,7.95-2.66h19.86c3.98,0,6.37,2.66,7.95,2.66s3.98-2.66,7.94-2.66h19.88c3.96,0,6.35,2.66,7.93,2.66s3.98-2.66,7.95-2.66h19.86c3.97,0,6.35,2.66,7.95,2.66s3.96-2.66,7.94-2.66h19.86c3.98,0,6.37,2.66,7.95,2.66h107.27c1.6,0,3.98-2.66,7.95-2.66h19.86c3.98,0,6.39,2.66,7.95,2.66s3.96-2.66,7.94-2.66h23.84c19.86,0,132.48,39.56,134.07,39.56h15.9v-7.15h0Z"/>
    <path class="e" d="M661.42,131.01v-9.32h-15.81c-3.98,0-111.25,33.25-131.12,33.25h-23.82c-3.98,0-6.37-2.08-7.95-2.08s-3.98,2.08-7.95,2.08h-19.87c-3.98,0-6.35-2.08-7.95-2.08h-107.27c-1.58,0-3.98,2.08-7.94,2.08h-19.86c-3.98,0-6.37-2.08-7.95-2.08s-3.98,2.08-7.95,2.08h-19.87c-3.98,0-6.35-2.08-7.95-2.08s-3.96,2.08-7.94,2.08h-19.86c-3.98,0-6.37-2.08-7.95-2.08s-3.98,2.08-7.95,2.08h-19.86c-3.96,0-6.36-2.08-7.94-2.08s-3.97,2.08-7.95,2.08h-19.86c-3.98,0-6.36-2.08-7.95-2.08s-3.98,2.08-7.94,2.08h-19.86c-3.98,0-6.37-2.08-7.95-2.08s-3.98,2.08-7.95,2.08h-19.87c-3.98,0-6.35-2.08-7.95-2.08s-3.96,2.08-7.94,2.08h-31.79c-23.84,0-39.78-8.45-43.71-18.7C2.21,126.5.37,115.01.14,103.32c.19,22.38,2.01,44.52,5.79,63.18,3.92,19.37,19.86,35.34,43.71,35.34h31.79c3.98,0,6.36-3.92,7.94-3.92s3.98,3.92,7.95,3.92h19.87c3.97,0,6.36-3.92,7.95-3.92s3.98,3.92,7.95,3.92h19.86c3.96,0,6.36-3.92,7.94-3.92s3.98,3.92,7.95,3.92h19.86c3.98,0,6.36-3.92,7.95-3.92s3.98,3.92,7.94,3.92h19.86c3.98,0,6.37-3.92,7.95-3.92s3.98,3.92,7.95,3.92h19.86c3.98,0,6.36-3.92,7.94-3.92s3.98,3.92,7.95,3.92h19.87c3.97,0,6.36-3.92,7.95-3.92s3.98,3.92,7.95,3.92h19.86c3.96,0,6.36-3.92,7.94-3.92h107.27c1.6,0,3.98,3.92,7.95,3.92h19.87c3.97,0,6.36-3.92,7.95-3.92s3.98,3.92,7.95,3.92h23.82c19.88,0,127.15-70.82,131.12-70.82h15.81Z"/>
    <path class="n" d="M476.37,97.74c0,21.46,2.39,89.01,4.77,101.71.74,3.91-5.56,5.56-4.77,6.35.73.73,2.39-.79,5.57-3.17,1.48-1.11,1.58-3.97.79-11.93-.79-7.94-3.18-67.54-3.18-92.97s2.39-73.9,3.18-81.85c.79-7.99.62-10.85-.79-11.91-3.18-2.39-4.77-3.97-5.57-3.18-.81.82,5.51,2.45,4.77,6.35-2.38,12.72-4.77,65.96-4.77,90.59h0Z"/>
    <path class="n" d="M297.58,97.74c0,21.46,2.39,89.01,4.77,101.71.74,3.91-5.56,5.56-4.77,6.35.73.73,2.39-.79,5.57-3.17,1.48-1.11,1.58-3.97.79-11.93-.79-7.94-3.19-67.54-3.19-92.97s2.39-73.9,3.19-81.85c.79-7.99.62-10.85-.79-11.91-3.18-2.39-4.77-3.97-5.57-3.18-.81.82,5.51,2.45,4.77,6.35-2.38,12.72-4.77,65.96-4.77,90.59h0Z"/>
    <path class="n" d="M261.82,97.74c0,21.46,2.39,89.01,4.77,101.71.74,3.91-5.56,5.56-4.77,6.35.73.73,2.39-.79,5.56-3.17,1.5-1.11,1.6-3.97.79-11.93-.79-7.94-3.17-67.54-3.17-92.97s2.37-73.9,3.17-81.85c.81-7.99.63-10.85-.79-11.91-3.17-2.39-4.77-3.97-5.56-3.18-.81.82,5.51,2.45,4.77,6.35-2.38,12.72-4.77,65.96-4.77,90.59h0Z"/>
    <path class="n" d="M226.07,97.74c0,21.46,2.38,89.01,4.77,101.71.73,3.91-5.57,5.56-4.77,6.35.71.73,2.38-.79,5.56-3.17,1.48-1.11,1.59-3.97.79-11.93-.79-7.94-3.18-67.54-3.18-92.97s2.39-73.9,3.18-81.85c.8-7.99.63-10.85-.79-11.91-3.18-2.39-4.77-3.97-5.56-3.18-.82.82,5.49,2.45,4.77,6.35-2.39,12.72-4.77,65.96-4.77,90.59h0Z"/>
    <path class="n" d="M190.31,97.74c0,21.46,2.39,89.01,4.77,101.71.75,3.91-5.55,5.56-4.77,6.35.73.73,2.39-.79,5.56-3.17,1.49-1.11,1.6-3.97.81-11.93-.81-7.94-3.18-67.54-3.18-92.97s2.37-73.9,3.18-81.85c.79-7.99.62-10.85-.81-11.91-3.17-2.39-4.76-3.97-5.56-3.18-.82.82,5.51,2.45,4.77,6.35-2.38,12.72-4.77,65.96-4.77,90.59h0Z"/>
    <path class="n" d="M159.32,199.45c.73,3.91-5.56,5.56-4.77,6.35.73.73,2.37-.79,5.56-3.17,1.49-1.11,1.58-3.97.79-11.93-.79-7.94-3.19-67.54-3.19-92.97s2.39-73.9,3.19-81.85c.81-7.99.63-10.85-.79-11.91-3.19-2.39-4.77-3.97-5.56-3.18-.82.82,5.49,2.45,4.77,6.35-2.39,12.72-4.77,65.96-4.77,90.59,0,0,2.38,89.01,4.77,101.71Z"/>
    <path class="n" d="M118.79,97.74c0,21.46,2.39,89.01,4.77,101.71.74,3.91-5.56,5.56-4.77,6.35.73.73,2.39-.79,5.57-3.17,1.48-1.11,1.58-3.97.79-11.93-.79-7.94-3.19-67.54-3.19-92.97s2.39-73.9,3.19-81.85c.79-7.99.62-10.85-.79-11.91-3.18-2.39-4.77-3.97-5.57-3.18-.81.82,5.51,2.45,4.77,6.35-2.38,12.72-4.77,65.96-4.77,90.59h0Z"/>
    <path class="n" d="M83.03,97.74c0,21.46,2.39,89.01,4.77,101.71.74,3.91-5.56,5.56-4.77,6.35.73.73,2.39-.79,5.56-3.17,1.5-1.11,1.6-3.97.79-11.93-.79-7.94-3.17-67.54-3.17-92.97s2.37-73.9,3.17-81.85c.81-7.99.63-10.85-.79-11.91-3.17-2.39-4.77-3.97-5.56-3.18-.81.82,5.51,2.45,4.77,6.35-2.38,12.72-4.77,65.96-4.77,90.59h0Z"/>
    <path class="n" d="M333.34,97.74c0,21.46,2.37,89.01,4.77,101.71.73,3.91-5.56,5.56-4.77,6.35.73.73,2.37-.79,5.56-3.17,1.49-1.11,1.58-3.97.79-11.93-.79-7.94-3.19-67.54-3.19-92.97s2.39-73.9,3.19-81.85c.81-7.99.63-10.85-.79-11.91-3.19-2.39-4.77-3.97-5.56-3.18-.82.82,5.49,2.45,4.77,6.35-2.39,12.72-4.77,65.96-4.77,90.59h0Z"/>
    <path class="o" d="M481.14,97.74c0,21.46,0,70.72,3.18,96.94.97,7.93,5.56,10.33,4.77,11.12-.73.73-2.38-.79-5.56-3.17-1.49-1.11-2.39-7.95-3.18-19.87-.8-11.92-2.38-59.6-2.38-85.03s1.58-61.98,2.38-73.9c.79-11.93,1.76-18.8,3.18-19.87,3.18-2.39,4.77-3.97,5.56-3.18.82.82-3.92,3.18-4.77,9.53-3.18,23.84-3.18,62.78-3.18,87.41h0Z"/>
    <path class="o" d="M445.38,97.74c0,21.46,0,70.72,3.18,96.94.95,7.93,5.56,10.33,4.77,11.12-.73.73-2.39-.79-5.56-3.17-1.49-1.11-2.39-7.95-3.18-19.87-.79-11.92-2.39-59.6-2.39-85.03s1.6-61.98,2.39-73.9c.79-11.93,1.76-18.8,3.18-19.87,3.17-2.39,4.75-3.97,5.56-3.18.82.82-3.92,3.18-4.77,9.53-3.18,23.84-3.18,62.78-3.18,87.41h0Z"/>
    <path class="o" d="M302.35,97.74c0,21.46,0,70.72,3.18,96.94.97,7.93,5.56,10.33,4.77,11.12-.72.73-2.38-.79-5.56-3.17-1.49-1.11-2.39-7.95-3.18-19.87-.8-11.92-2.38-59.6-2.38-85.03s1.59-61.98,2.38-73.9c.79-11.93,1.76-18.8,3.18-19.87,3.18-2.39,4.77-3.97,5.56-3.18.82.82-3.93,3.18-4.77,9.53-3.18,23.84-3.18,62.78-3.18,87.41h0Z"/>
    <path class="o" d="M266.59,97.74c0,21.46,0,70.72,3.18,96.94.95,7.93,5.56,10.33,4.77,11.12-.73.73-2.39-.79-5.56-3.17-1.49-1.11-2.38-7.95-3.18-19.87-.79-11.92-2.39-59.6-2.39-85.03s1.61-61.98,2.39-73.9c.79-11.93,1.76-18.8,3.18-19.87,3.17-2.39,4.76-3.97,5.56-3.18.82.82-3.92,3.18-4.77,9.53-3.18,23.84-3.18,62.78-3.18,87.41h0Z"/>
    <path class="o" d="M230.84,97.74c0,21.46,0,70.72,3.17,96.94.97,7.93,5.56,10.33,4.77,11.12-.71.73-2.38-.79-5.56-3.17-1.48-1.11-2.38-7.95-3.19-19.87-.79-11.92-2.37-59.6-2.37-85.03s1.58-61.98,2.37-73.9c.81-11.93,1.76-18.8,3.19-19.87,3.18-2.39,4.76-3.97,5.56-3.18.81.82-3.93,3.18-4.77,9.53-3.17,23.84-3.17,62.78-3.17,87.41h0Z"/>
    <path class="o" d="M195.07,97.74c0,21.46,0,70.72,3.19,96.94.95,7.93,5.55,10.33,4.76,11.12-.73.73-2.39-.79-5.56-3.17-1.49-1.11-2.39-7.95-3.18-19.87-.79-11.92-2.37-59.6-2.37-85.03s1.58-61.98,2.37-73.9c.79-11.93,1.76-18.8,3.18-19.87,3.17-2.39,4.77-3.97,5.56-3.18.82.82-3.92,3.18-4.76,9.53-3.19,23.84-3.19,62.78-3.19,87.41h0Z"/>
    <path class="o" d="M159.32,97.74c0,21.46,0,70.72,3.17,96.94.97,7.93,5.57,10.33,4.77,11.12-.71.73-2.37-.79-5.56-3.17-1.48-1.11-2.37-7.95-3.17-19.87-.8-11.92-2.38-59.6-2.38-85.03s1.58-61.98,2.38-73.9c.79-11.93,1.75-18.8,3.17-19.87,3.19-2.39,4.77-3.97,5.56-3.18.82.82-3.91,3.18-4.77,9.53-3.17,23.84-3.17,62.78-3.17,87.41h0Z"/>
    <path class="o" d="M123.55,97.74c0,21.46,0,70.72,3.18,96.94.97,7.93,5.56,10.33,4.77,11.12-.72.73-2.38-.79-5.56-3.17-1.49-1.11-2.39-7.95-3.18-19.87-.8-11.92-2.38-59.6-2.38-85.03s1.58-61.98,2.38-73.9c.79-11.93,1.76-18.8,3.18-19.87,3.18-2.39,4.77-3.97,5.56-3.18.82.82-3.93,3.18-4.77,9.53-3.18,23.84-3.18,62.78-3.18,87.41h0Z"/>
    <path class="o" d="M87.8,97.74c0,21.46,0,70.72,3.18,96.94.95,7.93,5.56,10.33,4.77,11.12-.73.73-2.39-.79-5.56-3.17-1.49-1.11-2.38-7.95-3.18-19.87-.79-11.92-2.39-59.6-2.39-85.03s1.61-61.98,2.39-73.9c.79-11.93,1.76-18.8,3.18-19.87,3.17-2.39,4.76-3.97,5.56-3.18.82.82-3.92,3.18-4.77,9.53-3.18,23.84-3.18,62.78-3.18,87.41h0Z"/>
    <path class="r" d="M663.11,138.94c-.04-29.61,0-47.69,0-71.28,2.39,0,1.58,3.86,1.58,35.63s.8,35.64-1.58,35.64h0Z"/>
    <path class="x" d="M662.32,138.94c.01-29.61,0-47.69,0-71.28-1.13,0-.75,3.86-.75,35.63s-.38,35.64.75,35.64h0Z"/>
    <polygon class="h" points="664.83 93.28 664.83 78.61 669.13 78.76 668.88 93.28 664.83 93.28 664.83 93.28"/>
    <polygon class="j" points="664.83 89.66 668.93 89.84 669.03 83.03 664.83 83.16 664.83 89.66"/>
    <polygon class="g" points="665.01 121.76 664.99 131.04 669.55 131.04 668.99 121.76 665.01 121.76 665.01 121.76"/>
    <path class="f" d="M12.4,144.54c.16,1.29.25,2.57.43,3.86.58,4.43,1.29,8.88,2.08,13.29.81,4.4,1.71,8.8,2.74,13.16,2.15-1.8,4.19-3.73,6.08-5.76,1.89-2.04,3.64-4.18,5.28-6.41,1.65-2.25,3.16-4.56,4.58-6.96.39-.66.71-1.38,1.09-2.05-9.64-1.7-17.19-4.96-22.28-9.12h0Z"/>
    <path class="i" d="M661.42,121.7h-15.82c-1.33,0-15.75,4.14-33.15,9.12-.12,4.06-.26,8.33-.42,11.64-.27,5.03-1.21,8-1.37,8.72,18.27-9.87,33.56-20.17,34.93-20.17h15.82v-9.32h0Z"/>
    <path class="k" d="M609.87,55.67c3.98,0,3.98,96.06,0,96.06s-75.49,57.27-95.36,57.27h-23.84c-3.96,0-6.35-3.91-7.94-3.91s-3.98,3.91-7.95,3.91h-19.86c-3.98,0-6.35-3.91-7.95-3.91h-107.27c-1.58,0-3.98,3.91-7.94,3.91h-19.88c-3.96,0-6.35-3.91-7.94-3.91s-3.98,3.91-7.95,3.91h-19.86c-3.98,0-6.35-3.91-7.95-3.91s-3.96,3.91-7.94,3.91h-19.86c-3.98,0-6.37-3.91-7.95-3.91s-3.97,3.91-7.95,3.91h-19.87c-3.97,0-6.35-3.91-7.93-3.91s-3.98,3.91-7.95,3.91h-19.86c-3.97,0-6.37-3.91-7.95-3.91s-3.98,3.91-7.94,3.91h-19.88c-3.96,0-6.35-3.91-7.94-3.91s-3.97,3.91-7.95,3.91h-19.86c-3.98,0-6.35-3.91-7.95-3.91s-3.96,3.91-7.94,3.91h-31.79c-23.84,0-36.6-15.87-40.51-35.16-7.95-39.07-7.95-93.76,0-132.83C13.19,21.09,25.83,5.85,49.66,5.85h31.79c3.98,0,6.36,3.91,7.94,3.91s3.97-3.91,7.95-3.91h19.86c3.98,0,6.35,3.91,7.95,3.91s3.97-3.91,7.94-3.91h19.88c3.96,0,6.35,3.91,7.94,3.91s3.98-3.91,7.95-3.91h19.86c3.98,0,6.36,3.91,7.95,3.91s3.96-3.91,7.93-3.91h19.87c3.97,0,6.36,3.91,7.95,3.91s3.98-3.91,7.95-3.91h19.86c3.98,0,6.36,3.91,7.94,3.91s3.97-3.91,7.95-3.91h19.86c3.98,0,6.35,3.91,7.95,3.91s3.97-3.91,7.94-3.91h19.88c3.96,0,6.35,3.91,7.94,3.91h107.27c1.6,0,3.98-3.91,7.95-3.91h19.86c3.98,0,6.41,3.91,7.95,3.91s3.98-3.91,7.94-3.91h23.84c19.86,0,91.38,49.82,95.36,49.82h0Z"/>
    <path class="v" d="M675.74,74.18c-.84,19.84-.84,39.6,0,59.29q0,1.19-1.18,1.19h-3.56q-1.19,0-1.19-1.19c-.75-19.62-.77-39.39,0-59.29q0-1.18,1.19-1.18h3.56q1.18,0,1.18,1.18h0Z"/>
    <path class="v" d="M699.46,89v29.65c0,1.19-.81,16.01-5.42,16.01h-13.1q-4.61,0-4.61-1.19c-.77-19.9-.76-39.67,0-59.29q0-1.18,4.61-1.18h13.1c4.61,0,5.42,14.82,5.42,16h0Z"/>
    <path class="v" d="M677.52,74.18v1.78c-.6-.6-2.38-.6-2.97,0v-1.78c.59.59,2.37.59,2.97,0h0Z"/>
    <path class="v" d="M677.52,131.7v1.78c-.6-.59-2.38-.59-2.97,0v-1.78c.59.59,2.37.59,2.97,0h0Z"/>
    <path class="v" d="M677.52,121.62v1.78c-.6-.59-2.38-.59-2.97,0v-1.78c.59.59,2.37.59,2.97,0h0Z"/>
    <path class="v" d="M677.52,84.26v1.78c-.6-.59-2.38-.59-2.97,0v-1.78c.59.59,2.37.59,2.97,0h0Z"/>
    <path class="v" d="M677.52,96.12v1.79c-.6-.6-2.38-.6-2.97,0v-1.79c.59.59,2.37.59,2.97,0h0Z"/>
    <path class="v" d="M677.52,109.76v1.77c-.6-.59-2.38-.59-2.97,0v-1.77c.59.59,2.37.59,2.97,0h0Z"/>
    <path class="v" d="M675.74,74.18c-.84,19.84-.84,39.6,0,59.29q0,1.19-1.18,1.19h-3.56q-1.19,0-1.19-1.19c-.75-19.62-.77-39.39,0-59.29q0-1.18,1.19-1.18h3.56q1.18,0,1.18,1.18h0Z"/>
    <path class="v" d="M677.52,74.18v1.78c-.6-.6-2.38-.6-2.97,0v-1.78c.59.59,2.37.59,2.97,0h0Z"/>
    <path class="v" d="M677.52,131.7v1.78c-.6-.59-2.38-.59-2.97,0v-1.78c.59.59,2.37.59,2.97,0h0Z"/>
    <path class="v" d="M677.52,121.62v1.78c-.6-.59-2.38-.59-2.97,0v-1.78c.59.59,2.37.59,2.97,0h0Z"/>
    <path class="v" d="M677.52,84.26v1.78c-.6-.59-2.38-.59-2.97,0v-1.78c.59.59,2.37.59,2.97,0h0Z"/>
    <path class="v" d="M677.52,96.12v1.79c-.6-.6-2.38-.6-2.97,0v-1.79c.59.59,2.37.59,2.97,0h0Z"/>
    <path class="v" d="M677.52,109.76v1.77c-.6-.59-2.38-.59-2.97,0v-1.77c.59.59,2.37.59,2.97,0h0Z"/>
    <path class="v" d="M699.46,89v29.65c0,1.19-.81,16.01-5.42,16.01h-13.1q-4.61,0-4.61-1.19c-.77-19.9-.76-39.67,0-59.29q0-1.18,4.61-1.18h13.1c4.61,0,5.42,14.82,5.42,16h0Z"/>
    <path class="t" d="M678.95,73.02c-2.48.03-2.62.2-2.62,1.16-.76,19.62-.77,39.39,0,59.29,0,.97.14,1.14,2.62,1.17-1.95-.06-1.95-.28-1.95-1.17-.77-19.9-.77-39.67,0-59.29,0-.89,0-1.11,1.95-1.16h0Z"/>
    <path class="p" d="M699.46,89c0-1.11-.71-14.21-4.6-15.84,3.76,1.63,3.41,14.73,3.41,15.84v29.65c0,1.11.35,14.21-3.41,15.84,3.89-1.63,4.6-14.73,4.6-15.84v-29.65h0Z"/>
    <path class="v" d="M699.44,89.02v29.64c0,1.19-.81,16.02-5.42,16.02h-13.1q-4.61,0-4.61-1.19c-.76-19.9-.76-39.67,0-59.29q0-1.18,4.61-1.18h13.1c4.61,0,5.42,14.83,5.42,16.01h0Z"/>
    <path class="t" d="M678.95,73.02c-2.48.03-2.62.2-2.62,1.16-.76,19.62-.77,39.39,0,59.29,0,.97.14,1.14,2.62,1.17-1.95-.06-1.95-.28-1.95-1.17-.77-19.9-.77-39.67,0-59.29,0-.89,0-1.11,1.95-1.16h0Z"/>
    <path class="p" d="M699.46,89c0-1.11-.71-14.21-4.6-15.84,3.76,1.63,3.41,14.73,3.41,15.84v29.65c0,1.11.35,14.21-3.41,15.84,3.89-1.63,4.6-14.73,4.6-15.84v-29.65h0Z"/>
    <path class="y" d="M695.32,73.44s-.68,20.26-.67,30.39c0,10.12.71,30.37.71,30.37-.22.15-.35.32-1,.45,0,0-.68-20.55-.68-30.82s.68-30.81.68-30.81c.54.06.7.26.96.42h0Z"/>
    <path class="w" d="M671.39,73h-.39q-1.19,0-1.19,1.18c-.77,19.9-.75,39.67,0,59.29q0,1.19,1.19,1.19h.39q-1.19,0-1.19-1.19c-.76-19.62-.77-39.39,0-59.29q0-1.18,1.19-1.18h0Z"/>
    <path class="w" d="M675.74,74.18q0-1.18-1.18-1.18h-.54q1.18,0,1.18,1.18c-.83,19.84-.83,39.6,0,59.29q0,1.19-1.18,1.19h.54q1.18,0,1.18-1.19c-.84-19.69-.84-39.46,0-59.29h0Z"/>
    <path class="u" d="M695.64,95.75c0,.68-.44,1.32-.88,1.35-.05-.28.02-.95.03-1.41.04-3.83.09-7.57.25-11.37.02-.46.02-.77.05-1.14l.48.19c.18.2.32.53.3.98-.1,3.41-.11,7.81-.23,11.4h0Z"/>
    <path class="y" d="M696.08,130.28c.04.68-.37,1.34-.81,1.39-.06-.28-.03-.95-.05-1.41-.15-3.83-.29-7.56-.32-11.38,0-.46-.02-.76,0-1.12l.49.16c.18.05.34.51.34.96.07,3.28.31,7.7.36,11.4h0Z"/>
    <rect class="s" x="677.2" y="75.43" width="16.92" height=".24"/>
    <rect class="s" x="677.2" y="77.04" width="16.92" height=".24"/>
    <rect class="s" x="677.12" y="78.72" width="16.92" height=".24"/>
    <rect class="s" x="677.04" y="80.4" width="16.92" height=".24"/>
    <rect class="s" x="677.04" y="82.09" width="16.92" height=".24"/>
    <rect class="s" x="676.96" y="83.69" width="16.92" height=".24"/>
    <rect class="s" x="676.96" y="85.38" width="16.92" height=".24"/>
    <polygon class="s" points="693.8 86.98 676.88 86.99 676.88 87.22 693.8 87.22 693.8 86.98"/>
    <rect class="s" x="676.88" y="88.66" width="16.92" height=".24"/>
    <rect class="s" x="676.8" y="90.35" width="16.92" height=".24"/>
    <rect class="s" x="676.72" y="92.03" width="17" height=".24"/>
    <rect class="s" x="676.72" y="93.63" width="16.92" height=".24"/>
    <rect class="s" x="676.72" y="95.32" width="16.92" height=".24"/>
    <polygon class="s" points="676.64 96.93 676.64 97.16 693.56 97.16 693.56 96.95 676.64 96.93 676.64 96.93 676.64 96.93"/>
    <polygon class="s" points="693.57 98.63 693.57 98.86 676.65 98.86 676.65 98.63 693.57 98.63 693.57 98.63"/>
    <rect class="s" x="676.64" y="100.29" width="16.92" height=".24"/>
    <rect class="s" x="676.64" y="101.97" width="16.92" height=".24"/>
    <rect class="s" x="676.64" y="103.58" width="16.92" height=".24"/>
    <rect class="s" x="676.64" y="105.26" width="16.92" height=".24"/>
    <rect class="s" x="676.64" y="106.86" width="16.92" height=".24"/>
    <rect class="s" x="676.64" y="108.55" width="16.92" height=".24"/>
    <rect class="s" x="676.64" y="110.23" width="17" height=".24"/>
    <rect class="s" x="677.2" y="131.8" width="16.92" height=".24"/>
    <rect class="s" x="677.28" y="73.75" width="16.92" height=".24"/>
    <rect class="y" x="677.28" y="73.99" width="16.92" height=".24"/>
    <rect class="y" x="677.2" y="75.67" width="16.92" height=".24"/>
    <rect class="y" x="677.2" y="77.28" width="16.92" height=".24"/>
    <rect class="y" x="677.12" y="78.96" width="16.92" height=".24"/>
    <rect class="y" x="677.04" y="80.65" width="16.92" height=".24"/>
    <rect class="y" x="677.04" y="82.33" width="16.92" height=".23"/>
    <rect class="y" x="676.96" y="83.93" width="16.92" height=".24"/>
    <rect class="y" x="676.96" y="85.62" width="16.92" height=".24"/>
    <rect class="y" x="676.88" y="87.22" width="16.92" height=".24"/>
    <rect class="y" x="676.88" y="88.9" width="16.92" height=".24"/>
    <rect class="y" x="676.8" y="90.59" width="16.92" height=".24"/>
    <rect class="y" x="676.72" y="92.27" width="17" height=".24"/>
    <rect class="y" x="676.72" y="93.87" width="16.92" height=".24"/>
    <rect class="y" x="676.72" y="95.56" width="16.92" height=".24"/>
    <rect class="y" x="676.64" y="97.16" width="16.92" height=".24"/>
    <rect class="y" x="676.64" y="98.85" width="16.92" height=".24"/>
    <rect class="y" x="676.64" y="100.53" width="16.92" height=".24"/>
    <rect class="y" x="676.64" y="102.21" width="16.92" height=".25"/>
    <rect class="y" x="676.64" y="103.82" width="16.92" height=".24"/>
    <rect class="y" x="676.64" y="105.5" width="16.92" height=".24"/>
    <rect class="y" x="676.64" y="107.1" width="16.92" height=".24"/>
    <rect class="y" x="676.64" y="108.79" width="16.92" height=".24"/>
    <rect class="y" x="676.64" y="110.47" width="17" height=".24"/>
    <rect class="s" x="676.72" y="111.91" width="16.92" height=".24"/>
    <polygon class="y" points="693.64 112.16 676.72 112.16 676.72 112.42 693.63 112.43 693.64 112.16"/>
    <rect class="s" x="676.72" y="113.52" width="16.92" height=".24"/>
    <rect class="y" x="676.72" y="113.76" width="16.92" height=".24"/>
    <rect class="s" x="676.72" y="115.2" width="17" height=".24"/>
    <rect class="y" x="676.72" y="115.44" width="17" height=".24"/>
    <polygon class="s" points="693.71 116.83 676.8 116.83 676.8 117.05 693.72 117.05 693.71 116.83"/>
    <rect class="y" x="676.8" y="117.05" width="16.92" height=".24"/>
    <rect class="s" x="676.8" y="118.49" width="16.92" height=".24"/>
    <rect class="y" x="676.8" y="118.73" width="16.92" height=".24"/>
    <rect class="s" x="676.88" y="120.17" width="16.92" height=".24"/>
    <rect class="y" x="676.88" y="120.41" width="16.92" height=".24"/>
    <rect class="s" x="676.96" y="121.86" width="16.92" height=".24"/>
    <polygon class="y" points="693.88 122.1 676.96 122.1 676.95 122.34 693.88 122.34 693.88 122.1"/>
    <rect class="s" x="676.96" y="123.46" width="16.92" height=".24"/>
    <rect class="y" x="676.96" y="123.7" width="16.92" height=".24"/>
    <rect class="s" x="677.04" y="125.14" width="16.92" height=".24"/>
    <rect class="y" x="677.04" y="125.38" width="16.92" height=".24"/>
    <rect class="s" x="677.04" y="126.79" width="16.92" height=".2"/>
    <rect class="y" x="677.04" y="126.99" width="16.92" height=".24"/>
    <rect class="s" x="677.12" y="128.43" width="16.92" height=".24"/>
    <rect class="y" x="677.12" y="128.67" width="16.92" height=".24"/>
    <rect class="s" x="677.12" y="130.11" width="16.92" height=".24"/>
    <rect class="y" x="677.12" y="130.35" width="16.92" height=".24"/>
    <polygon class="y" points="694.12 132.04 677.2 132.04 677.2 132.26 694.12 132.25 694.12 132.04"/>
    <rect class="s" x="677.28" y="133.4" width="16.92" height=".24"/>
    <rect class="y" x="677.28" y="133.64" width="16.92" height=".24"/>
  </g>
</svg>