<?xml version="1.0" encoding="UTF-8"?>
<svg id="b" data-name="Calque 2" xmlns="http://www.w3.org/2000/svg" width="512" height="512" xmlns:xlink="http://www.w3.org/1999/xlink" viewBox="0 0 512 512">
  <defs>
    <style>
      .m {
        fill: none;
      }

      .n {
        fill: url(#d);
      }

      .o {
        fill: #fff;
      }

      .p {
        opacity: .25;
      }

      .q {
        clip-path: url(#h);
      }

      .r {
        clip-path: url(#k);
      }

      .s {
        clip-path: url(#j);
      }

      .t {
        clip-path: url(#g);
      }

      .u {
        clip-path: url(#f);
      }

      .v {
        clip-path: url(#i);
      }

      .w {
        clip-path: url(#l);
      }
    </style>
    <linearGradient id="d" data-name="Dégradé sans nom 43" x1="-2405.99" y1="-7691.81" x2="-1893.99" y2="-7691.81" gradientTransform="translate(-7435.8112 2405.9863) rotate(90)" gradientUnits="userSpaceOnUse">
      <stop offset="0" stop-color="#4e3d8b"/>
      <stop offset=".13" stop-color="#52408c"/>
      <stop offset=".29" stop-color="#604b8f"/>
      <stop offset=".45" stop-color="#775c94"/>
      <stop offset=".62" stop-color="#97759b"/>
      <stop offset=".79" stop-color="#c194a4"/>
      <stop offset=".97" stop-color="#f3bab0"/>
      <stop offset="1" stop-color="#fcc1b2"/>
    </linearGradient>
    <clipPath id="f">
      <rect class="m" x="35.25" y="34.25" width="441.95" height="441.95"/>
    </clipPath>
    <clipPath id="g">
      <rect class="m" x="104.08" y="197.09" width="304.29" height="116.28"/>
    </clipPath>
    <clipPath id="h">
      <rect class="m" x="35.25" y="34.25" width="441.95" height="441.95"/>
    </clipPath>
    <clipPath id="i">
      <rect class="m" x="34.76" y="28.91" width="442.93" height="449.46"/>
    </clipPath>
    <clipPath id="j">
      <rect class="m" x="37.06" y="36.06" width="438.33" height="438.32"/>
    </clipPath>
    <clipPath id="k">
      <rect class="m" x="37.06" y="36.06" width="438.33" height="438.32"/>
    </clipPath>
    <clipPath id="l">
      <rect class="m" x="37.06" y="36.06" width="438.33" height="438.32"/>
    </clipPath>
  </defs>
  <g id="c" data-name="Calque 2">
    <rect class="n" x="0" y="0" width="512" height="512" rx="100" ry="100"/>
  </g>
  <g id="e" data-name="Calque 1">
    <g class="u">
      <g class="t">
        <path class="o" d="M407.13,216.72v56.29c.07,8.01-1.57,15.03-4.68,21.07-7.52,14.4-21.7,19.29-37.17,19.29-13.12,0-26.1-4.9-34.75-15.11-1.21-1.49-1.77-3.05-1.77-4.76,0-.5.14-1.48.42-2.91.28-1.42,1.57-2.69,3.76-3.9l.14-.07c1.06-.5,2.13-.71,3.19-.71,1.13,0,3.55.14,5.82,2.76,4.47,5.39,12.62,9.36,23.9,9.36,16.54.07,25.67-8.17,25.88-24.45,0-.2,0-.39,0-.59v-5.96c-4.93,5.85-12.01,9.73-21.46,10.64-12.44-.29-22.37-4.4-29.75-12.32-6.6-7.38-9.85-16.95-9.93-28.8v-17.09c0-.74-.07-1.45-.22-2.14-.39-1.87-1.31-3.51-2.76-4.96-.43-.43-.87-.8-1.34-1.14-1.7-1.23-3.66-1.84-5.82-1.84h-21.18c-.72-.06-1.45-.09-2.2-.09-1.37,0-2.62.06-3.76.17h-.01c-12.52.86-12.46,7.88-12.46,10.27,0,.79.24,1.49.69,2.13,2.03,2.93,8.33,4.47,15.56,6.1,6.6,1.63,13.91,3.47,19.86,6.81,4.65,2.71,7.74,6.23,9.28,10.56,1.18,2.44,1.77,5.21,1.77,8.29,0,7.58-2.84,13.48-8.44,17.8-5.6,4.33-13.48,6.45-23.48,6.45h-32.2s-9.75-.61-14.01-4.87c-4.25-4.25-6.38-9.36-6.38-15.39v-19.36c0-4.82-.85-11.14-4.47-16.53-3.62-5.39-10.14-9.3-21.42-9.3s-17.8,3.9-21.35,9.3c-3.55,5.39-4.53,11.7-4.53,16.53,0,2.2.21,4.82.56,7.73.36,2.91,1.28,5.75,2.69,8.51,1.42,2.77,3.62,5.04,6.6,6.89,2.98,1.84,7.09,2.76,12.34,2.76,4.54,0,8.73-1.42,12.63-4.19,1.42-1.06,2.91-1.56,4.53-1.56.36-.07,1.14.07,2.27.21,1.14.21,2.34,1.14,3.69,2.83.93,1.21,1.35,2.63,1.35,4.12.07.28,0,.99-.14,2.12-.14,1.14-.85,2.34-2.2,3.69-4.53,4.47-11.63,8.09-22.13,8.09-16.2,0-26.39-6.96-31.99-17.18,0,.17-1.51,1.6-1.67,1.76-.59.6-1.18,1.2-1.79,1.78-4.45,4.26-9.53,7.66-15.25,10.01-4.87,1.99-10.05,3.23-15.3,3.5-.74.04-1.47.06-2.21.06-25.53,0-41.77-15.6-41.77-41.13,0-11.63,3.33-21.28,10-28.87,8.3-9.15,18.87-12.27,30.99-12.27,5.12,0,9.77.73,14.03,2.32,5.13,1.91,9.7,5.06,13.84,9.66,1.7,1.91,2.55,3.97,2.55,6.31.07.14,0,.92-.07,2.34-.07,1.42-1.14,3.05-3.12,4.9l-32.34,28.3c-1.35,1.06-2.77,1.63-4.25,1.63-.21,0-.79,0-1.77-.07-2.77-.21-5.11-4.12-5.11-6.67.07-.14.07-.64.15-1.63.07-.93.78-2.06,2.12-3.34l26.81-23.47c-3.69-2.84-8.16-5.04-13.48-5.04-6.47,0-11.59,1.3-15.47,3.78-6.55,4.18-9.57,11.73-9.57,22.11,0,4.75,1.06,11.2,4.76,16.53,2.44,3.56,6.17,6.5,11.7,8.09,2.84.81,6.15,1.27,10,1.27,6.52,0,12.87-2.51,18.22-6.11,3.87-2.6,7.12-5.93,9.89-9.67,1.07-1.46,2.04-2.96,2.89-4.49-.04-.42-.07-.85-.1-1.28-.09-1.43-.14-2.88-.14-4.34,0-7.85,1.52-14.76,4.55-20.75,1.46-2.9,3.27-5.58,5.44-8.04,7.59-8.23,18.02-12.34,31.14-12.34s23.55,4.11,31.21,12.34c6.6,7.38,9.85,16.95,9.93,28.8v17.09c0,2.24.65,4.2,1.95,5.92,1.9,1.72,4.17,2.58,6.74,2.58h27.25c.74.06,1.5.09,2.27.09,1.47,0,2.81-.07,4.01-.2.01,0,.03,0,.03,0,11.89-1.25,11.78-8.12,11.78-10.44,0-.71-.09-1.36-.28-1.96-2.04-2.91-8.35-4.45-15.55-6.07-6.6-1.63-13.9-3.48-19.86-6.81-4.64-2.7-7.73-6.22-9.27-10.55-1.19-2.45-1.77-5.22-1.77-8.3,0-7.59,2.84-13.48,8.44-17.8,5.6-4.33,13.47-4.72,23.48-4.72h26.06c3.3,0,6.35.66,9.13,1.95,2.29,1.07,4.41,2.58,6.34,4.5,3.61,3.6,5.68,7.98,6.23,12.85.1.88.15,1.78.15,2.7v17.47c0,4.82.85,11.14,4.47,16.53,3.62,5.39,10.14,9.29,21.42,9.29.29,0,.57,0,.85-.01,18.77-2.08,19.15-19.4,19.15-28.52v-17.14c.05-1.66.51-3.12,1.31-4.31,1.37-2.09,3.74-3.35,6.63-3.35,4.19,0,7.31,3.55,7.31,7.66"/>
      </g>
      <g class="q">
        <g class="p">
          <g class="v">
            <g class="s">
              <path class="o" d="M301.33,248.22c-1.63,5.84-5.85,8.54-14.49,8.54h-62.18c-8.65,0-12.87-2.7-14.5-8.54-1.64-5.86,1.91-16.49,14.5-53.92,9.58-28.53,10.6-31.24,14.02-39.53,3.73-9.01,8.89-10.73,17.07-10.73s13.32,1.71,17.07,10.73c3.43,8.3,4.44,11,14.02,39.53,12.59,37.43,16.14,48.06,14.49,53.92Z"/>
              <path class="o" d="M158.91,440.62C56.52,386.87,17.11,260.3,70.83,157.93,124.58,55.56,251.15,16.13,353.54,69.89c102.37,53.73,141.8,180.27,88.07,282.66-53.75,102.39-180.31,141.81-282.69,88.07h0ZM256.25,36.36c-120.89,0-218.9,98-218.9,218.87s98,218.87,218.9,218.87,218.85-97.98,218.85-218.87S377.11,36.36,256.25,36.36Z"/>
              <path class="o" d="M403.39,379.5h-.02l-1.46.47-10.01,3.16c-55.92,59.4-146.55,76.93-222.31,37.16-18.66-9.8-34.98-22.31-48.71-36.81l-12.35-3.91-.23-.07-.05-.02h68.23c.16-.8,5.28-26.51,6.88-33,1.61-6.61,3.44-8.43,17.92-8.43s54.44.45,54.44.45c0,0,39.97-.45,54.45-.45s16.31,1.82,17.92,8.43c1.61,6.54,6.8,32.6,6.88,33.01h68.41Z"/>
              <path class="o" d="M427.46,328.92c-7.62-20.07-29.11-75.83-52.38-128.39-27.38-61.94-53.48-101.33-53.48-101.33,0,0-28.95-13.4-65.87-13.4s-65.87,13.4-65.87,13.4c0,0-26.1,39.39-53.49,101.33-22.82,51.53-43.92,106.14-51.91,127.17-20.88-49.58-20.23-107.75,6.73-159.11,47.83-91.14,160.51-126.26,251.69-78.4,86.88,45.61,122.82,150.1,84.59,238.72"/>
              <path class="o" d="M286.84,194.3c-9.58-28.53-10.6-31.24-14.02-39.53-3.74-9.01-8.89-10.73-17.07-10.73s-13.33,1.71-17.07,10.73c-3.43,8.3-4.44,11-14.02,39.53-12.59,37.43-16.15,48.06-14.5,53.92,1.63,5.84,5.85,8.54,14.5,8.54h62.18c8.65,0,12.86-2.7,14.49-8.54,1.64-5.86-1.91-16.49-14.49-53.92Z"/>
              <path class="o" d="M342.88,90.19c-91.18-47.86-203.86-12.74-251.69,78.4-26.96,51.36-27.61,109.53-6.73,159.11,7.99-21.03,29.1-75.65,51.91-127.17,27.39-61.94,53.49-101.33,53.49-101.33,0,0,28.95-13.39,65.87-13.39s65.87,13.39,65.87,13.39c0,0,26.1,39.39,53.48,101.33,23.27,52.55,44.77,108.32,52.38,128.39,38.23-88.62,2.28-193.11-84.59-238.72Z"/>
              <path class="o" d="M108.26,379.5l.05.02h.16s0,0-.02-.02h-.19Z"/>
            </g>
            <polygon class="o" points="402.32 379.5 402.32 379.51 403.37 379.51 403.39 379.5 402.32 379.5"/>
            <g class="r">
              <path class="o" d="M108.47,379.51h68.01s0,0,0-.02h-68.04l.02.02"/>
            </g>
            <path class="o" d="M402.32,379.51h0-34.33s34.32,0,34.32,0ZM334.98,379.5h33.01s-33,0-33,0h0Z"/>
            <g class="w">
              <path class="o" d="M117.2,379.51s0,0,0-.02h-8.94l.05.02.23.07,12.35,3.91c-1.25-1.31-2.47-2.63-3.67-3.98h0ZM395.23,379.5h0c-1.09,1.23-2.2,2.44-3.33,3.63l10.01-3.16,1.46-.46h.02-8.16Z"/>
              <path class="o" d="M334.99,379.5h.02-.02s0,0,0,0c-.08-.4-5.27-26.48-6.88-33.01-1.61-6.61-3.46-8.43-17.92-8.43s-54.45.45-54.45.45c0,0-39.97-.45-54.44-.45s-16.32,1.82-17.92,8.43c-1.6,6.49-6.72,32.2-6.88,33h-68.23l.05.02.23.07,12.35,3.91c13.73,14.49,30.05,27.01,48.71,36.81,75.76,39.77,166.39,22.24,222.31-37.16l10.01-3.16,1.46-.46h.02-68.41v-.02Z"/>
            </g>
          </g>
        </g>
      </g>
    </g>
  </g>
</svg>